<?xml version="1.0" standalone="no"?>
<!DOCTYPE svg PUBLIC "-//W3C//DTD SVG 20010904//EN"
 "http://www.w3.org/TR/2001/REC-SVG-20010904/DTD/svg10.dtd">
<svg version="1.0" xmlns="http://www.w3.org/2000/svg"
 width="512.000000pt" height="512.000000pt" viewBox="0 0 512.000000 512.000000"
 preserveAspectRatio="xMidYMid meet">
<metadata>
Created by potrace 1.14, written by Peter Selinger 2001-2017
</metadata>
<g transform="translate(0.000000,512.000000) scale(0.100000,-0.100000)"
fill="#000000" stroke="none">
<path d="M2885 5099 c-79 -23 -149 -93 -166 -166 -5 -21 -9 -482 -9 -1024 0
-1111 -4 -1046 76 -1124 74 -73 22 -69 1134 -69 l995 0 45 22 c62 30 107 78
128 138 16 46 17 123 17 1049 l-1 1000 -24 47 c-25 52 -59 86 -112 115 -31 17
-87 18 -1043 20 -577 1 -1023 -2 -1040 -8z"/>
<path d="M1782 4705 c-23 -7 -59 -26 -80 -41 -20 -15 -381 -372 -802 -793
-814 -814 -817 -818 -859 -956 -21 -67 -30 -199 -18 -250 48 -196 -38 -101
1227 -1368 624 -626 1162 -1158 1195 -1181 114 -81 219 -112 353 -103 122 9
204 39 300 113 31 24 398 384 814 801 829 830 808 806 810 925 3 137 -102 275
-232 304 -19 4 -478 8 -1020 9 -898 2 -989 3 -1030 19 -142 53 -238 162 -270
301 -8 35 -12 340 -12 1022 l0 971 -24 58 c-13 31 -40 74 -60 95 -70 71 -198
104 -292 74z"/>
</g>
</svg>
