<?xml version="1.0" encoding="UTF-8"?>
<svg version="1.1" xmlns="http://www.w3.org/2000/svg" width="308" height="127">
<path d="M0 0 C101.64 0 203.28 0 308 0 C308 41.91 308 83.82 308 127 C206.36 127 104.72 127 0 127 C0 85.09 0 43.18 0 0 Z " fill="#0269AC" transform="translate(0,0)"/>
<path d="M0 0 C3.24378616 2.44938955 4.41611853 3.64424655 6.0625 7.3125 C6.5190637 10.63252426 6.52681514 13.90298245 6.5 17.25 C6.5299707 18.57161133 6.5299707 18.57161133 6.56054688 19.91992188 C6.55536512 26.83757131 4.98847291 29.91837143 0.5 35.125 C-3.44858365 38.38687345 -9.1243517 37.73673583 -13.9375 37.3125 C-18.11895284 35.58537818 -20.36225328 32.99142389 -22.9375 29.3125 C-24.19408192 25.54275424 -24.16063998 21.99077808 -24.1875 18.0625 C-24.208125 17.32386719 -24.22875 16.58523437 -24.25 15.82421875 C-24.2870621 10.57066599 -23.44305259 6.9556569 -20.9375 2.3125 C-14.7596358 -2.60457559 -7.1898353 -3.72412188 0 0 Z " fill="#066AAD" transform="translate(110.9375,44.6875)"/>
<path d="M0 0 C4.76169665 3.63740717 7.01031567 6.96292556 8 13 C8.92940298 22.30855175 6.95123119 29.94074653 2.25 38 C-3.20530747 42.84916219 -9.2802703 43.50960996 -16.31640625 43.28515625 C-21.54267519 42.72981763 -25.51775578 41.44323779 -29.375 37.6875 C-32.84155826 31.95434596 -33.36409561 26.65672841 -33.375 20.125 C-33.39949219 19.36058594 -33.42398438 18.59617187 -33.44921875 17.80859375 C-33.47943888 11.87537489 -31.95765989 8.13206598 -29 3 C-28.34 3 -27.68 3 -27 3 C-26.67 2.01 -26.34 1.02 -26 0 C-17.62719535 -4.18640233 -8.25934935 -4.8584408 0 0 Z M-25 5 C-27.83942047 10.30645793 -28.47038425 14.60098436 -28.375 20.5625 C-28.38660156 21.29146484 -28.39820312 22.02042969 -28.41015625 22.77148438 C-28.37830842 28.66864117 -26.92809695 32.7706379 -23 37.3125 C-19.79606831 40.01581736 -17.03810736 40.13701818 -13 40.125 C-11.700625 40.12886719 -11.700625 40.12886719 -10.375 40.1328125 C-6.24542199 39.90188215 -4.10355498 38.60728289 -1.3125 35.6875 C2.56578272 30.62851387 2.6410448 25.8918404 2.625 19.75 C2.62330811 18.87432373 2.62161621 17.99864746 2.61987305 17.09643555 C2.46799139 12.3045923 2.1279637 8.85264559 -1 5 C-5.81347035 1.36533871 -9.53870361 0.3366816 -15.56640625 0.62109375 C-19.64464488 1.2560683 -21.73637164 2.40241824 -25 5 Z " fill="#DDE6ED" transform="translate(115,42)"/>
<path d="M0 0 C8.25 0 16.5 0 25 0 C25 1.32 25 2.64 25 4 C18.4 4 11.8 4 5 4 C5 9.61 5 15.22 5 21 C10.61 21 16.22 21 22 21 C22 21.99 22 22.98 22 24 C16.06 24 10.12 24 4 24 C4 30.27 4 36.54 4 43 C10.93 43 17.86 43 25 43 C25 43.99 25 44.98 25 46 C16.75 46 8.5 46 0 46 C0 30.82 0 15.64 0 0 Z " fill="#D3F3FB" transform="translate(25,39)"/>
<path d="M0 0 C0 1.65 0 3.3 0 5 C-2.97 4.01 -5.94 3.02 -9 2 C-9 1.34 -9 0.68 -9 0 C-11.97 0 -14.94 0 -18 0 C-18 0.66 -18 1.32 -18 2 C-19.7578125 2.87890625 -21.515625 3.7578125 -23.2734375 4.63671875 C-25.70855425 6.5594693 -26.18241127 7.99546211 -27 11 C-27.29812733 13.98456147 -27.32473521 16.93987341 -27.3125 19.9375 C-27.32861328 20.72318359 -27.34472656 21.50886719 -27.36132812 22.31835938 C-27.36616646 28.10017372 -26.2836758 32.24055841 -22.5 36.8125 C-18.61153658 39.89086688 -13.68135775 39.21316165 -9 39 C-6.10913026 38.57549372 -6.10913026 38.57549372 -4 38 C-4 37.34 -4 36.68 -4 36 C-1.525 35.505 -1.525 35.505 1 35 C1 36.32 1 37.64 1 39 C-6.95615693 43.40044235 -14.00004081 44.39343125 -22.8125 41.9375 C-27.93098148 38.82626616 -31.04008543 35.26888898 -33.375 29.75 C-34.87585325 20.74488052 -34.71650923 12.22140923 -29.93359375 4.21484375 C-22.56105267 -5.68820649 -10.13312421 -4.58858455 0 0 Z " fill="#BFDEEE" transform="translate(250,42)"/>
<path d="M0 0 C7.92 0 15.84 0 24 0 C24 1.32 24 2.64 24 4 C17.73 4 11.46 4 5 4 C5 9.94 5 15.88 5 22 C10.94 22 16.88 22 23 22 C23 23.32 23 24.64 23 26 C17.06 26 11.12 26 5 26 C5 32.93 5 39.86 5 47 C3.35 47 1.7 47 0 47 C0 31.49 0 15.98 0 0 Z " fill="#D2E1EA" transform="translate(167,39)"/>
<path d="M0 0 C7.92 0 15.84 0 24 0 C24 0.99 24 1.98 24 3 C14.595 3.495 14.595 3.495 5 4 C4.67 9.61 4.34 15.22 4 21 C9.94 21 15.88 21 22 21 C22 21.99 22 22.98 22 24 C16.06 24 10.12 24 4 24 C4 30.27 4 36.54 4 43 C10.93 43 17.86 43 25 43 C25 43.99 25 44.98 25 46 C16.75 46 8.5 46 0 46 C0 30.82 0 15.64 0 0 Z " fill="#FEFAF9" transform="translate(259,39)"/>
<path d="M0 0 C7.92 0 15.84 0 24 0 C24 0.99 24 1.98 24 3 C17.73 3 11.46 3 5 3 C5 9.27 5 15.54 5 22 C10.94 22 16.88 22 23 22 C23 23.32 23 24.64 23 26 C17.06 26 11.12 26 5 26 C5 32.6 5 39.2 5 46 C3.35 46 1.7 46 0 46 C0 30.82 0 15.64 0 0 Z " fill="#D8EAF2" transform="translate(133,39)"/>
<path d="M0 0 C-0.23976563 1.22203125 -0.23976563 1.22203125 -0.484375 2.46875 C-1.07458316 6.51078163 -1.22133018 10.4217188 -1.25 14.5 C-1.270625 15.23347656 -1.29125 15.96695313 -1.3125 16.72265625 C-1.3527377 22.34587543 -0.17366173 26.37349208 3.5 30.8125 C6.91728407 33.51784989 10.53378339 33.10362591 14.6875 33.0625 C15.86699219 33.05347656 17.04648438 33.04445312 18.26171875 33.03515625 C19.16535156 33.02355469 20.06898437 33.01195312 21 33 C21.33 32.01 21.66 31.02 22 30 C24.375 28.4375 24.375 28.4375 27 27 C27.99 26.34 28.98 25.68 30 25 C29.70359143 28.45809994 29.03653935 29.95510879 26.8125 32.6875 C20.85726236 37.58402872 14.43137281 37.67462108 7 37 C2.71039202 36.08640629 -0.32302686 34.69433142 -3.4375 31.5 C-6.5747281 26.48043504 -6.18342863 21.84933968 -6.1875 16.125 C-6.19974609 15.22652344 -6.21199219 14.32804687 -6.22460938 13.40234375 C-6.24347272 4.88868605 -6.24347272 4.88868605 -4 1 C-2 0 -2 0 0 0 Z " fill="#EBEFF2" transform="translate(89,48)"/>
<path d="M0 0 C1.65 0 3.3 0 5 0 C5 15.51 5 31.02 5 47 C3.35 47 1.7 47 0 47 C0 31.49 0 15.98 0 0 Z " fill="#D5E9F0" transform="translate(201,39)"/>
<path d="M0 0 C0.33 0 0.66 0 1 0 C1.02578125 1.134375 1.0515625 2.26875 1.078125 3.4375 C1.34207296 15.95672021 1.34207296 15.95672021 7.4453125 26.6328125 C11.22740529 29.9587735 16.27930213 29.21495297 21 29 C23.89086974 28.57549372 23.89086974 28.57549372 26 28 C26 27.34 26 26.68 26 26 C27.65 25.67 29.3 25.34 31 25 C31 26.32 31 27.64 31 29 C23.78402068 32.99106017 17.03270549 34.44963348 8.88671875 32.4921875 C4.70942189 30.93576426 2.30358867 28.75399635 0 25 C-1.81340304 19.75478044 -2.31087612 15.1612782 -2.25 9.6875 C-2.25773438 8.97271484 -2.26546875 8.25792969 -2.2734375 7.52148438 C-2.25357734 2.25357734 -2.25357734 2.25357734 0 0 Z " fill="#F3F7F8" transform="translate(220,52)"/>
<path d="M0 0 C0.66 0 1.32 0 2 0 C2 14.19 2 28.38 2 43 C9.59 43 17.18 43 25 43 C25 43.99 25 44.98 25 46 C16.75 46 8.5 46 0 46 C0 30.82 0 15.64 0 0 Z " fill="#E6F8FC" transform="translate(259,39)"/>
<path d="M0 0 C0.33 1.32 0.66 2.64 1 4 C-5.6 4 -12.2 4 -19 4 C-19 9.61 -19 15.22 -19 21 C-13.39 21 -7.78 21 -2 21 C-2 21.99 -2 22.98 -2 24 C-7.94 24 -13.88 24 -20 24 C-20 30.27 -20 36.54 -20 43 C-20.66 43 -21.32 43 -22 43 C-22.12251226 29.61412165 -21.8760293 16.35944677 -21 3 C-14.07 3 -7.14 3 0 3 C0 2.01 0 1.02 0 0 Z " fill="#E3E4EA" transform="translate(49,39)"/>
<path d="M0 0 C7.26 0 14.52 0 22 0 C22 0.99 22 1.98 22 3 C15.73 3 9.46 3 3 3 C3 9.27 3 15.54 3 22 C2.34 22 1.68 22 1 22 C0.67 14.74 0.34 7.48 0 0 Z " fill="#FBF2F1" transform="translate(135,39)"/>
<path d="M0 0 C7.26 0 14.52 0 22 0 C22 0.99 22 1.98 22 3 C15.07 3 8.14 3 1 3 C1 8.94 1 14.88 1 21 C0.67 21 0.34 21 0 21 C0 14.07 0 7.14 0 0 Z " fill="#FEFEFE" transform="translate(27,39)"/>
<path d="M0 0 C6.93 0 13.86 0 21 0 C21 0.99 21 1.98 21 3 C14.4 3 7.8 3 1 3 C1 9.27 1 15.54 1 22 C0.67 22 0.34 22 0 22 C0 14.74 0 7.48 0 0 Z " fill="#FEFEFE" transform="translate(169,39)"/>
<path d="M0 0 C5.57880358 0.15050729 9.79939896 1.26083148 14.921875 3.49609375 C14.921875 5.14609375 14.921875 6.79609375 14.921875 8.49609375 C11.951875 7.50609375 8.981875 6.51609375 5.921875 5.49609375 C5.921875 4.83609375 5.921875 4.17609375 5.921875 3.49609375 C-0.018125 3.99109375 -0.018125 3.99109375 -6.078125 4.49609375 C-2.078125 0.49609375 -2.078125 0.49609375 0 0 Z " fill="#EFF5F8" transform="translate(235.078125,38.50390625)"/>
<path d="M0 0 C7.59 0 15.18 0 23 0 C23 0.99 23 1.98 23 3 C15.41 3 7.82 3 0 3 C0 2.01 0 1.02 0 0 Z " fill="#FDFDFD" transform="translate(27,82)"/>
<path d="M0 0 C0 0.66 0 1.32 0 2 C1.32 2.33 2.64 2.66 4 3 C2.37750059 3.83819158 0.75191503 4.6704116 -0.875 5.5 C-1.77992187 5.9640625 -2.68484375 6.428125 -3.6171875 6.90625 C-6 8 -6 8 -8 8 C-9.09315246 12.5838914 -9.32282625 17.12511007 -9.5625 21.8125 C-9.60568359 22.60076172 -9.64886719 23.38902344 -9.69335938 24.20117188 C-9.79878321 26.13394215 -9.89983094 28.06695026 -10 30 C-10.33 30 -10.66 30 -11 30 C-11.10901505 27.16560863 -11.18777904 24.33549797 -11.25 21.5 C-11.28351563 20.70851563 -11.31703125 19.91703125 -11.3515625 19.1015625 C-11.45153439 13.00327706 -10.06910431 9.2682263 -7 4 C-6.34 4 -5.68 4 -5 4 C-4.67 3.01 -4.34 2.02 -4 1 C-2 0 -2 0 0 0 Z " fill="#C3E5F3" transform="translate(93,41)"/>
<path d="M0 0 C0.33 0 0.66 0 1 0 C1.1964031 3.29119935 1.38060745 6.58296934 1.5625 9.875 C1.61857422 10.81214844 1.67464844 11.74929687 1.73242188 12.71484375 C1.78076172 13.61074219 1.82910156 14.50664063 1.87890625 15.4296875 C1.94960327 16.67081299 1.94960327 16.67081299 2.02172852 17.93701172 C2 20 2 20 1 22 C0.34 22 -0.32 22 -1 22 C-2.29883646 18.03075579 -2.18380706 14.00370441 -2.1875 9.875 C-2.19974609 9.14667969 -2.21199219 8.41835938 -2.22460938 7.66796875 C-2.22985188 5.77717022 -2.12233385 3.88684419 -2 2 C-1.34 1.34 -0.68 0.68 0 0 Z " fill="#FBF9F9" transform="translate(220,52)"/>
<path d="M0 0 C-0.33 1.98 -0.66 3.96 -1 6 C-1.66 6 -2.32 6 -3 6 C-2.96519531 6.97582031 -2.93039063 7.95164062 -2.89453125 8.95703125 C-2.86746094 10.22933594 -2.84039062 11.50164063 -2.8125 12.8125 C-2.77769531 14.07707031 -2.74289063 15.34164062 -2.70703125 16.64453125 C-3 20 -3 20 -4.51171875 21.94921875 C-5.00285156 22.29597656 -5.49398437 22.64273438 -6 23 C-6.05416741 20.27056463 -6.09375225 17.54221436 -6.125 14.8125 C-6.14175781 14.04357422 -6.15851563 13.27464844 -6.17578125 12.48242188 C-6.2122513 8.23366116 -6.11916892 4.81598599 -4 1 C-2 0 -2 0 0 0 Z " fill="#FAFCFC" transform="translate(89,48)"/>
<path d="M0 0 C5.28 0 10.56 0 16 0 C16 0.99 16 1.98 16 3 C10.72 3 5.44 3 0 3 C0 2.01 0 1.02 0 0 Z " fill="#FEFEFE" transform="translate(58,66)"/>
<path d="M0 0 C0.33 0 0.66 0 1 0 C1.33 4.95 1.66 9.9 2 15 C2.66 15 3.32 15 4 15 C3.67 16.65 3.34 18.3 3 20 C2.01 20 1.02 20 0 20 C-2.17032476 21.43990623 -2.17032476 21.43990623 -4 23 C-3 21 -2 19 -1 17 C-0.76725791 14.12089412 -0.58027243 11.25853505 -0.4375 8.375 C-0.39431641 7.57320312 -0.35113281 6.77140625 -0.30664062 5.9453125 C-0.20048543 3.9637489 -0.09973145 1.98189729 0 0 Z " fill="#A9DDF3" transform="translate(117,55)"/>
<path d="M0 0 C0.33 0 0.66 0 1 0 C1 5.28 1 10.56 1 16 C0.01 16.33 -0.98 16.66 -2 17 C-1.85978195 14.35375716 -1.71310224 11.70815422 -1.5625 9.0625 C-1.52318359 8.30775391 -1.48386719 7.55300781 -1.44335938 6.77539062 C-1.11328125 1.11328125 -1.11328125 1.11328125 0 0 Z " fill="#FDFEFD" transform="translate(120,54)"/>
<path d="M0 0 C0 1.32 0 2.64 0 4 C-1.98 4.66 -3.96 5.32 -6 6 C-5.625 3.5625 -5.625 3.5625 -5 1 C-3 0 -3 0 0 0 Z " fill="#C8D7E5" transform="translate(251,77)"/>
<path d="M0 0 C-0.33 1.98 -0.66 3.96 -1 6 C-1.66 6 -2.32 6 -3 6 C-3 6.66 -3 7.32 -3 8 C-3.66 8 -4.32 8 -5 8 C-4.74438677 5.6568787 -4.40729228 3.32156597 -4 1 C-2 0 -2 0 0 0 Z " fill="#F9F5F3" transform="translate(89,48)"/>
<path d="M0 0 C1.65 0.33 3.3 0.66 5 1 C5 2.65 5 4.3 5 6 C3.02 5.34 1.04 4.68 -1 4 C-0.67 2.68 -0.34 1.36 0 0 Z " fill="#CDDEE6" transform="translate(245,41)"/>
<path d="M0 0 C1.46726798 3.81489674 0.43336419 6.29011622 -1 10 C-3 7 -3 7 -2.75 5 C-2 3 -2 3 0 0 Z " fill="#DCEDF4" transform="translate(86,67)"/>
</svg>
