<svg version="1.1" id="Layer_2_1_" xmlns:x="ns_extend;" xmlns:i="ns_ai;" xmlns:graph="ns_graphs;" xmlns="http://www.w3.org/2000/svg" xmlns:xlink="http://www.w3.org/1999/xlink" x="0px" y="0px" viewBox="0 0 120.2 118.8" style="enable-background:new 0 0 120.2 118.8;" xml:space="preserve">
 <style type="text/css">
  .st0{fill-rule:evenodd;clip-rule:evenodd;fill:#FFCD22;}
	.st1{fill-rule:evenodd;clip-rule:evenodd;fill:#0078B6;}
	.st2{fill-rule:evenodd;clip-rule:evenodd;fill:#009A50;}
	.st3{fill-rule:evenodd;clip-rule:evenodd;fill:#CA2031;}
 </style>
 <metadata>
  <sfw xmlns="ns_sfw;">
   <slices>
   </slices>
   <sliceSourceBounds bottomLeftOrigin="true" height="118.8" width="120.2" x="666.7" y="147.2">
   </sliceSourceBounds>
  </sfw>
 </metadata>
 <g id="Layer_1-2">
  <g>
   <path class="st0" d="M83.1,3.9c46.2,32.2,27,106.8-22.5,114.9l0,0C124.1,118.8,144.8,32.7,83.1,3.9">
   </path>
   <path class="st1" d="M33.9,3.4c55.2-8.1,77.8,60,53.6,91.5C127.5,54.7,95.5-16.4,33.9,3.4">
   </path>
   <path class="st2" d="M1.3,36.7C28.5-3.6,85,21.3,90.7,62C97.2,11.7,30.8-16.2,1.3,36.7">
   </path>
   <path class="st3" d="M0,66.8C6.6,25,61,20.6,80.6,49.9C64.6,8.3,1.1,13.4,0,66.8">
   </path>
  </g>
 </g>
</svg>